<svg xmlns="http://www.w3.org/2000/svg" version="1.1" xmlns:xlink="http://www.w3.org/1999/xlink" xmlns:svgjs="http://svgjs.dev/svgjs" width="100%" height="100%" viewBox="0 0 1000 600"><rect width="1000" height="600" x="0" y="0" fill="#e2d3f4"/><g><circle r="166.66666666666666" cx="368.41909281412757" cy="390.64135597765943" fill="#daa520" transform="matrix(0.6195710640144776,0,0,0.6195710640144776,0,57.969907984771424)"/><path d="M364.2612218087731 448.2329568738242L364.2612218087731 448.2329568738242Q395.7689902021372 448.2329568738242 395.7689902021372 426.6810678084089L395.7689902021372 426.6810678084089Q395.7689902021372 420.0629977349169 392.97789108418624 415.40157446576166Q390.15801774852446 410.7401511966064 385.4102718262367 407.31601928901705Q380.6337516862381 403.8918873814277 374.53361753154115 401.4173046582959Q368.4047091591333 398.9427219351641 361.58521956166544 396.43936499432147L361.58521956166544 396.43936499432147Q353.7010839088967 393.7633627472139 346.6514005697422 390.3392308396245Q339.63049144829847 386.91509893203516 334.45113226034823 382.2536756628799Q329.27177307239793 377.59225239372466 326.2504802127603 371.17560184420853Q323.25796157083346 364.75895129469234 323.25796157083346 355.6375242803577L323.25796157083346 355.6375242803577Q323.25796157083346 336.79041167976084 336.0912626698658 326.2014995621737Q348.953337986609 315.6413616622973 371.51232467190346 315.6413616622973L371.51232467190346 315.6413616622973Q384.5758195126225 315.6413616622973 395.25105428334217 318.4324607802483Q405.9262890540619 321.25233411591006 410.87545450032553 324.5613691526561L410.87545450032553 324.5613691526561L404.45880395080934 340.9338990301211Q400.1138970764733 338.22912256530265 391.5104059809337 335.6394429713275Q382.90691488539403 333.04976337735235 371.51232467190346 333.04976337735235L371.51232467190346 333.04976337735235Q365.72870691202564 333.04976337735235 360.75076724805126 334.28705473891824Q355.7728275840768 335.52434610048414 352.06095349937914 338.0277030413268Q348.3203051969706 340.5022857644586 346.13346465094713 344.32925671999965Q343.97539832263453 348.18500189325147 343.97539832263453 353.36436108120176L343.97539832263453 353.36436108120176Q343.97539832263453 359.1479788410796 346.2485615217905 363.0900466674639Q348.52172472094645 367.03211449384827 352.66521207130666 370.0246331357751Q356.80869942166686 373.0459259954128 362.3045750044363 375.5205087185446Q367.8004505872058 377.9950914416764 374.41852066069777 380.498448382519L374.41852066069777 380.498448382519Q383.74136719900827 384.2103224672167 391.5104059809337 387.9509707696252Q399.27944476285904 391.69161907203375 404.9767398696044 396.87097825998404Q410.6740349763496 402.0503374479343 413.78165048911984 409.1863434402213Q416.88926600189 416.32234943250836 416.88926600189 426.47964828443304L416.88926600189 426.47964828443304Q416.88926600189 445.32676088502984 403.1064157184001 455.4840597369545Q389.352339652621 465.64135858887926 364.2612218087731 465.64135858887926L364.2612218087731 465.64135858887926Q355.7728275840768 465.64135858887926 348.6368215917898 464.4903898804459Q341.4720413817919 463.3681953897233 335.8898431458899 461.8143876333382Q330.30764490998797 460.26057987695316 326.2504802127603 458.5053525965922Q322.2220897332434 456.7213510985204 319.94892653408743 455.4840597369545L319.94892653408743 455.4840597369545L325.9339638179411 438.9101103355137Q330.7104839579397 441.61488680033216 340.43616954420185 444.9239218370782Q350.19062934817487 448.2329568738242 364.2612218087731 448.2329568738242Z " fill="black" transform="matrix(0.6195710640144776,0,0,0.6195710640144776,0,57.969907984771424)"/><path d="M651.6996085319071 425.6399271219437L651.6996085319071 425.6399271219437Q675.3633470981194 425.6399271219437 675.3633470981194 409.4534977282514L675.3633470981194 409.4534977282514Q675.3633470981194 404.4830320933392 673.2671072433956 400.98209542874895Q671.1492566685199 397.4811587641586 667.5834878434742 394.90948306609533Q663.9961082982768 392.3378073680321 659.4146356260968 390.47928543497795Q654.811552233765 388.6207635019238 649.6898115577903 386.7406308487179L649.6898115577903 386.7406308487179Q643.7684742361994 384.7308338746013 638.4738477990103 382.159158176538Q633.200832081973 379.5874824784747 629.3109024546504 376.0865458138844Q625.4209728273279 372.5856091492941 623.1518472113896 367.7664185554445Q620.9043323156034 362.9472279615948 620.9043323156034 356.09662967347674L620.9043323156034 356.09662967347674Q620.9043323156034 341.9416079740529 630.5427135033026 333.9888629581934Q640.2027054111536 326.0577286624857 657.1455100101587 326.0577286624857L657.1455100101587 326.0577286624857Q666.9567769590723 326.0577286624857 674.9743541353871 328.1539685172096Q682.991931311702 330.2718190920852 686.7089751778103 332.75705190954125L686.7089751778103 332.75705190954125L681.8897845839606 345.05355167591097Q678.62656584104 343.0221439816425 672.1649605156542 341.0771791679812Q665.7033551902683 339.13221435431996 657.1455100101587 339.13221435431996L657.1455100101587 339.13221435431996Q652.8017552596484 339.13221435431996 649.0631006733884 340.06147532084697Q645.3244460871283 340.99073628737403 642.5366631875472 342.87086894057995Q639.7272695678142 344.7293908736341 638.084854836278 347.6036166538224Q636.4640508248935 350.4994531541626 636.4640508248935 354.38938278148515L636.4640508248935 354.38938278148515Q636.4640508248935 358.7331375319954 638.1712977168852 361.6938061927909Q639.8785446088768 364.6544748535864 642.9904883107349 366.9019897493728Q646.1024320125929 369.171115365311 650.2300795615852 371.02963729836506Q654.3577271105775 372.8881592314192 659.3281927454897 374.7682918846251L659.3281927454897 374.7682918846251Q666.3300660746703 377.55607478420626 672.1649605156542 380.36546840393925Q677.999854956638 383.17486202367223 682.2787775466929 387.0647916509948Q686.5577001367477 390.9547212783174 688.8916579131412 396.3141798759618Q691.2256156895348 401.6736384736063 691.2256156895348 409.3022226871889L691.2256156895348 409.3022226871889Q691.2256156895348 423.4572443866127 680.8740807368264 431.08582860019527Q670.5441565042697 438.7144128137779 651.6996085319071 438.7144128137779L651.6996085319071 438.7144128137779Q645.3244460871283 438.7144128137779 639.964987489484 437.8499840077062Q634.5839181716876 437.00716592178634 630.3914384622401 435.84018703358953Q626.1989587527924 434.6732081453928 623.1518472113896 433.3549542161335Q620.1263463901388 432.01508956672234 618.4190994981473 431.08582860019527L618.4190994981473 431.08582860019527L622.91412928972 418.63805379276306Q626.5015088349174 420.6694614870315 633.8059322462232 423.1546943044876Q641.1319663776808 425.6399271219437 651.6996085319071 425.6399271219437ZM735.8949742432891 425.96408792422056L735.8949742432891 425.96408792422056Q741.0167149192638 425.96408792422056 744.9930874271935 425.7263700025509Q748.9478492149715 425.48865208088114 751.605967793642 424.86194119647917L751.605967793642 424.86194119647917L751.605967793642 400.7443775070792Q750.0499959427128 399.9663915816147 746.5490592781226 399.42612357781985Q743.0481226135322 398.8858555740251 738.0560462584683 398.8858555740251L738.0560462584683 398.8858555740251Q734.7928275155476 398.8858555740251 731.1406158098948 399.3396806972127Q727.4884041042419 399.81511654055214 724.4412925628393 401.284645510874Q721.4157917415884 402.7757852013477 719.3843840473199 405.3474608994109Q717.3745870732032 407.8975258773224 717.3745870732032 412.1116163069218L717.3745870732032 412.1116163069218Q717.3745870732032 419.891475561567 722.3450527081154 422.9169763828179Q727.3371290631794 425.96408792422056 735.8949742432891 425.96408792422056ZM734.6415524744851 353.4385110948063L734.6415524744851 353.4385110948063Q743.3506726956573 353.4385110948063 749.3368421777037 355.7076367107445Q755.3446223799019 357.9551516065309 758.9968340855548 362.08279915552316Q762.6490457912076 366.21044670451545 764.2050176421367 371.8940661044368Q765.7609894930657 377.55607478420626 765.7609894930657 384.4066730723244L765.7609894930657 384.4066730723244L765.7609894930657 434.9757582275179Q763.9024675600116 435.29991902979475 760.5528059364839 435.84018703358953Q757.203144312956 436.38045503738437 753.0106646035084 436.8558908807238Q748.7965741739089 437.30971600391143 743.8909406994521 437.69870896664366Q739.0069179451472 438.08770192937595 734.1661166311457 438.08770192937595L734.1661166311457 438.08770192937595Q727.3371290631794 438.08770192937595 721.5670667826508 436.68300511950946Q715.8186152222742 435.29991902979475 711.6045247926747 432.2528074883921Q707.4120450832271 429.2273066671412 705.0780873068335 424.2352303120772Q702.74412953044 419.26476467716503 702.74412953044 412.2628913479844L702.74412953044 412.2628913479844Q702.74412953044 405.5635681009288 705.4670802695657 400.7443775070792Q708.1900310086916 395.92518691322954 712.8579465614787 392.96451825243406Q717.5258621142658 390.0038495916385 723.7497495179819 388.6207635019238Q729.973636921698 387.2160666920574 736.8242352098162 387.2160666920574L736.8242352098162 387.2160666920574Q739.0069179451472 387.2160666920574 741.3408757215407 387.45378461372707Q743.6748334979342 387.66989181524497 745.771073352658 388.05888477797725Q747.8673132073819 388.4478777407095 749.4232850583109 388.77203854298637Q750.97925690924 389.07458862511146 751.605967793642 389.225863666174L751.605967793642 389.225863666174L751.605967793642 385.1846589977889Q751.605967793642 381.6188901727432 750.8279818681774 378.1179535081529Q750.0499959427128 374.61701684356257 748.0185882484444 371.8940661044368Q746.0087912743278 369.171115365311 742.5078546097374 367.52870063377475Q739.0069179451472 365.88628590223857 733.3881307056812 365.88628590223857L733.3881307056812 365.88628590223857Q726.234982335438 365.88628590223857 720.8755237377935 366.9019897493728Q715.4944544199973 367.91769359650704 712.8579465614787 368.9982296040966L712.8579465614787 368.9982296040966L711.150699669487 357.0258906400038Q713.9384825690682 355.77246887119986 720.4865307750613 354.60548998300305Q727.0129682609025 353.4385110948063 734.6415524744851 353.4385110948063ZM789.7272781414032 436.38045503738437L789.7272781414032 357.80387656546833Q794.6977437763154 356.5504547966644 802.8665959936927 355.1673687069497Q811.0354482110702 353.7626718970832 821.7759761265108 353.7626718970832L821.7759761265108 353.7626718970832Q829.5558353811559 353.7626718970832 834.850461818345 355.85891175180706Q840.1450882555341 357.9551516065309 843.7108570805798 361.99635627491597L843.7108570805798 361.99635627491597Q844.8130038083212 361.21837034945145 847.1469615847147 359.83528425973674Q849.4809193611082 358.4305874498703 852.8954131450914 357.11233352061095Q856.3099069290746 355.77246887119986 860.523997358674 354.77837574421744Q864.7164770681217 353.7626718970832 869.5356676619714 353.7626718970832L869.5356676619714 353.7626718970832Q878.8714987675456 353.7626718970832 884.7928360891366 356.485622636209Q890.7141734107275 359.2085733753348 894.0422243141036 364.179039010247Q897.3918859376314 369.171115365311 898.5588648258282 376.0001029332773Q899.725843714025 382.85070122139535 899.725843714025 390.9547212783174L899.725843714025 390.9547212783174L899.725843714025 436.38045503738437L885.2682719324761 436.38045503738437L885.2682719324761 394.06666498017546Q885.2682719324761 386.8919058897805 884.555118167467 381.77016521380574Q883.8635751226095 376.62681381767925 881.9186103089482 373.2123200336961Q879.9736454952869 369.7762155295611 876.6239838717592 368.1554115181767Q873.2743222482314 366.51299678664054 867.9796958110423 366.51299678664054L867.9796958110423 366.51299678664054Q860.6752723997366 366.51299678664054 855.9209139663424 368.4579616003018Q851.1881662530999 370.4029264139631 849.4809193611082 371.9588982648921L849.4809193611082 371.9588982648921Q850.7127304097604 376.0001029332773 851.3394412941624 380.8409042472787Q851.9661521785644 385.66009484112834 851.9661521785644 390.9547212783174L851.9661521785644 390.9547212783174L851.9661521785644 436.38045503738437L837.4869696768636 436.38045503738437L837.4869696768636 394.06666498017546Q837.4869696768636 386.8919058897805 836.7089837513992 381.77016521380574Q835.9309978259347 376.62681381767925 833.9860330122734 373.2123200336961Q832.0410681986122 369.7762155295611 828.6914065750843 368.1554115181767Q825.3633556717083 366.51299678664054 820.2200042755818 366.51299678664054L820.2200042755818 366.51299678664054Q818.0373215402508 366.51299678664054 815.5520887227947 366.6642718277031Q813.0668559053387 366.8371575889174 810.7977302894004 367.0532647904353Q808.550215393614 367.29098271210506 806.6916934605599 367.61514351438194Q804.811560807354 367.91769359650704 804.184849922952 368.0689686375695L804.184849922952 368.0689686375695L804.184849922952 436.38045503738437L789.7272781414032 436.38045503738437ZM923.6921323623623 436.38045503738437L923.6921323623623 357.80387656546833Q928.6625979972745 356.5504547966644 936.8314502146519 355.1673687069497Q945.0003024320293 353.7626718970832 955.74083034747 353.7626718970832L955.74083034747 353.7626718970832Q963.5206896021151 353.7626718970832 968.8153160393043 355.85891175180706Q974.1099424764933 357.9551516065309 977.675711301539 361.99635627491597L977.675711301539 361.99635627491597Q978.7778580292803 361.21837034945145 981.1118158056739 359.83528425973674Q983.4457735820675 358.4305874498703 986.8602673660506 357.11233352061095Q990.2963718701857 355.77246887119986 994.4888515796333 354.77837574421744Q998.681331289081 353.7626718970832 1003.5221326030824 353.7626718970832L1003.5221326030824 353.7626718970832Q1012.8579637086566 353.7626718970832 1018.7576903100958 356.485622636209Q1024.679027631687 359.2085733753348 1028.0286892552144 364.179039010247Q1031.3567401585906 369.171115365311 1032.5237190467874 376.0001029332773Q1033.6906979349842 382.85070122139535 1033.6906979349842 390.9547212783174L1033.6906979349842 390.9547212783174L1033.6906979349842 436.38045503738437L1019.2331261534351 436.38045503738437L1019.2331261534351 394.06666498017546Q1019.2331261534351 386.8919058897805 1018.519972388426 381.77016521380574Q1017.8284293435687 376.62681381767925 1015.8834645299074 373.2123200336961Q1013.9384997162462 369.7762155295611 1010.5888380927184 368.1554115181767Q1007.2391764691906 366.51299678664054 1001.9661607521533 366.51299678664054L1001.9661607521533 366.51299678664054Q994.6401266206958 366.51299678664054 989.9073789074533 368.4579616003018Q985.1530204740591 370.4029264139631 983.4457735820675 371.9588982648921L983.4457735820675 371.9588982648921Q984.6775846307197 376.0001029332773 985.3042955151217 380.8409042472787Q985.9310063995237 385.66009484112834 985.9310063995237 390.9547212783174L985.9310063995237 390.9547212783174L985.9310063995237 436.38045503738437L971.4518238978229 436.38045503738437L971.4518238978229 394.06666498017546Q971.4518238978229 386.8919058897805 970.6738379723585 381.77016521380574Q969.8958520468939 376.62681381767925 967.9508872332325 373.2123200336961Q966.0059224195712 369.7762155295611 962.6778715161953 368.1554115181767Q959.3282098926676 366.51299678664054 954.184858496541 366.51299678664054L954.184858496541 366.51299678664054Q952.00217576121 366.51299678664054 949.5169429437539 366.6642718277031Q947.0317101262978 366.8371575889174 944.7841952305115 367.0532647904353Q942.5150696145732 367.29098271210506 940.6565476815191 367.61514351438194Q938.7764150283132 367.91769359650704 938.171314864063 368.0689686375695L938.171314864063 368.0689686375695L938.171314864063 436.38045503738437L923.6921323623623 436.38045503738437ZM1042.7239789584332 463.134526585303L1045.3604868169518 451.4647377033353Q1047.0893444290953 452.24272362879975 1049.8122951682212 452.95587739380886Q1052.535245907347 453.64742043866624 1055.1717537658656 453.64742043866624L1055.1717537658656 453.64742043866624Q1063.729598945975 453.64742043866624 1068.5487895398246 449.84393369195084Q1073.3679801336743 446.01883622508365 1077.2579097609969 437.460991044974L1077.2579097609969 437.460991044974Q1067.468253532235 418.7893288338256 1058.975240512581 397.87015172689087Q1050.5038382130783 376.9509746199561 1044.9066616937644 355.46991878907477L1044.9066616937644 355.46991878907477L1060.4663802030545 355.46991878907477Q1062.173627095046 362.4717921182554 1064.5940277520467 370.55420145502563Q1066.9928176888957 378.65822151194766 1069.9534863496913 387.2160666920574Q1072.9141550104869 395.77391187216705 1076.3286487944702 404.3317570522767Q1079.7647532986048 412.8896022323864 1083.481797164713 420.8207365280941L1083.481797164713 420.8207365280941Q1089.4031344863042 404.4830320933392 1093.768499956966 388.4478777407095Q1098.1122547074765 372.43433410823155 1102.002184334799 355.46991878907477L1102.002184334799 355.46991878907477L1116.9351919596872 355.46991878907477Q1111.338015440373 378.3340607096708 1104.4874171522551 399.42612357781985Q1097.6584295842886 420.518186445969 1089.7056845684292 438.8656878548405L1089.7056845684292 438.8656878548405Q1086.5937408665714 445.8675611840211 1083.2656899631952 450.92446969954045Q1079.9160283396673 455.9813782150598 1075.8748236712822 459.2445969579804Q1071.8120082827454 462.5294264210528 1066.755099767226 464.0853982719818Q1061.6981912517067 465.6413701229108 1055.323028806928 465.6413701229108L1055.323028806928 465.6413701229108Q1053.6157819149364 465.6413701229108 1051.7572599818823 465.4036522012412Q1049.8771273286766 465.16593427957145 1048.0834375560776 464.7769413168392Q1046.3113585036308 464.387948354107 1044.8202188131572 463.9125125107675Q1043.350689842835 463.45868738757986 1042.7239789584332 463.134526585303L1042.7239789584332 463.134526585303ZM1149.3080507470718 427.97388489833725L1149.3080507470718 427.97388489833725Q1149.3080507470718 432.1879753279367 1146.498657127339 435.29991902979475Q1143.7108742277576 438.41186273165283 1138.891683633908 438.41186273165283L1138.891683633908 438.41186273165283Q1134.0508823199066 438.41186273165283 1131.2630994203255 435.29991902979475Q1128.4537058005924 432.1879753279367 1128.4537058005924 427.97388489833725L1128.4537058005924 427.97388489833725Q1128.4537058005924 423.78140518888955 1131.2630994203255 420.6694614870315Q1134.0508823199066 417.55751778517345 1138.891683633908 417.55751778517345L1138.891683633908 417.55751778517345Q1143.7108742277576 417.55751778517345 1146.498657127339 420.6694614870315Q1149.3080507470718 423.78140518888955 1149.3080507470718 427.97388489833725ZM1222.7412778228613 423.78140518888955L1222.7412778228613 372.5856091492941Q1220.1047699643427 370.4029264139631 1215.1343043294305 368.39312943984646Q1210.1422279743665 366.361721745578 1204.242501372927 366.361721745578L1204.242501372927 366.361721745578Q1198.0186139692112 366.361721745578 1193.566805617942 368.60923664136436Q1189.1366079868249 370.8783622573025 1186.3488250872433 374.83312404508047Q1183.5394314675104 378.8094965530102 1182.2860096987065 384.25539803126185Q1181.0541986500543 389.70129950951343 1181.0541986500543 395.92518691322954L1181.0541986500543 395.92518691322954Q1181.0541986500543 410.0802086126534 1188.0560719792352 417.7952357068432Q1195.0579453084156 425.48865208088114 1206.7277341903834 425.48865208088114L1206.7277341903834 425.48865208088114Q1212.6274607918226 425.48865208088114 1216.6038332997523 424.94838407708636Q1220.580205807682 424.4081160732915 1222.7412778228613 423.78140518888955L1222.7412778228613 423.78140518888955ZM1222.7412778228613 359.0572983342723L1222.7412778228613 318.126594366778L1237.2204603245623 315.6413615493219L1237.2204603245623 434.0464972609908Q1232.24999468965 435.4511940708573 1224.4701354350045 436.8558908807238Q1216.6902761803594 438.2389769704385 1206.5764591493207 438.2389769704385L1206.5764591493207 438.2389769704385Q1197.2406280437467 438.2389769704385 1189.7633188712266 435.29991902979475Q1182.2860096987065 432.3392503689992 1177.0129939816693 426.89334889074763Q1171.7183675444803 421.44744741249605 1168.8441417642919 413.5811452772437Q1165.9483052639516 405.73645386214315 1165.9483052639516 395.92518691322954L1165.9483052639516 395.92518691322954Q1165.9483052639516 386.5893558076554 1168.3687059209524 378.8094965530102Q1170.7891065779531 371.02963729836506 1175.4570221307404 365.4324607790509Q1180.1249376835274 359.83528425973674 1186.8890930910384 356.7233405578787Q1193.6532484985491 353.61139685602063 1202.3623687197214 353.61139685602063L1202.3623687197214 353.61139685602063Q1209.364242048902 353.61139685602063 1214.7453113666984 355.46991878907477Q1220.1047699643427 357.3284407221289 1222.7412778228613 359.0572983342723L1222.7412778228613 359.0572983342723ZM1257.5993694277017 396.07646195429214L1257.5993694277017 396.07646195429214Q1257.5993694277017 385.3359340388514 1260.71131312956 377.33996758268836Q1263.823256831418 369.3223904063735 1268.9666082275448 364.02776396918443Q1274.088348903519 358.7331375319954 1280.787672150575 356.09662967347674Q1287.4869953976304 353.4385110948063 1294.4888687268112 353.4385110948063L1294.4888687268112 353.4385110948063Q1310.8265731615656 353.4385110948063 1319.535693382738 363.6387710064522Q1328.2448136039102 373.83903091809805 1328.2448136039102 394.6717651444256L1328.2448136039102 394.6717651444256Q1328.2448136039102 395.62263683110444 1328.2448136039102 397.09216580142635Q1328.2448136039102 398.5616947717482 1328.0935385628477 399.81511654055214L1328.0935385628477 399.81511654055214L1272.7052628138044 399.81511654055214Q1273.6345237803316 412.4141663890469 1280.0096862251103 418.96221459503994Q1286.384848669889 425.48865208088114 1299.9347702050627 425.48865208088114L1299.9347702050627 425.48865208088114Q1307.5417436984935 425.48865208088114 1312.7715379752271 424.17039815162184Q1317.979721531809 422.8521442223625 1320.6162293903276 421.59872245355854L1320.6162293903276 421.59872245355854L1322.6476370845962 433.7439471788657Q1319.9895185059258 435.1270332685804 1313.376638139477 436.68300511950946Q1306.7637577730288 438.2389769704385 1298.3787983541338 438.2389769704385L1298.3787983541338 438.2389769704385Q1287.7895454797554 438.2389769704385 1280.0961291057174 435.06220110812507Q1272.3811020115277 431.8638145256598 1267.4106363766155 426.26663800634566Q1262.4185600215515 420.6694614870315 1260.0197700847025 412.95443439284173Q1257.5993694277017 405.2610180188038 1257.5993694277017 396.07646195429214ZM1273.0078128959299 388.1453276585844L1313.1605309379593 388.1453276585844Q1313.3118059790222 378.3340607096708 1308.2548974635024 372.0453411454993Q1303.197988947983 365.735010861176 1294.3159829655965 365.735010861176L1294.3159829655965 365.735010861176Q1289.3455173306843 365.735010861176 1285.5420305839689 367.6799756748373Q1281.7169331171017 369.62494048849857 1279.080425258583 372.73688419035665Q1276.4223066799127 375.84882789221473 1274.952777709591 379.8900325605998Q1273.4832487392691 383.95284794913675 1273.0078128959299 388.1453276585844L1273.0078128959299 388.1453276585844ZM1397.3342859291897 355.46991878907477L1412.2672935540782 355.46991878907477Q1406.1946811914245 378.18278566860823 1398.0258289740468 399.0371306150876Q1389.8569767566696 419.891475561567 1382.228392543087 436.38045503738437L1382.228392543087 436.38045503738437L1369.1755175714047 436.38045503738437Q1361.5469333578221 419.891475561567 1353.3780811404445 399.0371306150876Q1345.2092289230673 378.18278566860823 1339.1366165604136 355.46991878907477L1339.1366165604136 355.46991878907477L1354.6963350697038 355.46991878907477Q1356.5548570027581 363.09850300265737 1359.1265327008214 371.72118034322244Q1361.6982083988846 380.36546840393925 1364.5724341790728 388.8368707034418Q1367.446659959261 397.32988372309603 1370.407328620057 405.2610180188038Q1373.3679972808523 413.1921523145114 1376.0045051393708 419.4160397182276L1376.0045051393708 419.4160397182276Q1378.6626237180412 413.1921523145114 1381.623292378837 405.2610180188038Q1384.5623503194806 397.32988372309603 1387.4581868198206 388.8368707034418Q1390.3324126000089 380.36546840393925 1392.904088298072 371.72118034322244Q1395.4541532759836 363.09850300265737 1397.3342859291897 355.46991878907477L1397.3342859291897 355.46991878907477Z " fill="#daa520" transform="matrix(0.6195710640144776,0,0,0.6195710640144776,0,57.969907984771424)"/></g></svg>